<svg xmlns="http://www.w3.org/2000/svg" viewBox="0 0 880 500"><defs><style>.cls-1{fill:#fff;}.cls-2{fill:#083c66;}.cls-3{fill:#9cb1c2;stroke:#fff;stroke-miterlimit:10;stroke-width:0.5px;}.cls-4{fill:#3bad6f;}</style></defs><g id="Layer_2" data-name="Layer 2"><g id="Layer_1-2" data-name="Layer 1"><rect class="cls-1" width="880" height="500"/><path class="cls-2" d="M447.63,85.79q84.28,0,168.57,0c3.95,0,7.56.68,10.48,3.51a13.05,13.05,0,0,1,4,9.83c0,26.89,0,53.77-.07,80.66,0,2.24.39,3,2.83,2.94,29.46-.1,58.91-.07,88.36-.06,9.06,0,14.13,5,14.15,14,0,9.3.06,18.59,0,27.89,0,1.84.51,2.28,2.32,2.3a52.77,52.77,0,0,1,51.87,44.44c4.45,27.5-14,54.07-41.33,59.76-.78.16-2.27-.19-2.2,1.08.08,1.52-1.1,3.41,1,4.55,1.13.62,1,1.81,1,2.9v70.66c0,3.64-.34,4-4,4h-14c-2.69,0-3.23-.54-3.24-3.29q0-11.38,0-22.77c0-1.21.11-2.08-1.67-1.55a15.12,15.12,0,0,1-4.16.24H585.76c-9.16,0-14.16-5.05-14.16-14.25,0-9.92-.06-19.84,0-29.76,0-1.87-.55-2.28-2.33-2.28q-47.09.07-94.17,0c-2.17,0-2.51.72-2.5,2.65q.12,17.31,0,34.63c0,2.1.5,2.76,2.69,2.75,22.86-.08,45.73,0,68.59-.1,2.06,0,2.69.51,2.55,2.57-.1,1.42-.47,2-1.88,1.79a5.45,5.45,0,0,0-.7,0q-96.49,0-193,0c-1.71,0-2.67-.1-2.62-2.28.05-1.87.74-2.09,2.33-2.09,22.24.05,44.49,0,66.73.08,2.1,0,2.71-.51,2.69-2.66q-.16-17.44,0-34.87c0-2.16-.66-2.5-2.6-2.49q-32.21.09-64.41,0c-1.87,0-2.57.36-2.48,2.38.17,3.71.06,7.44,0,11.16,0,8.6-5.28,13.86-13.94,13.87h-183c-7,0-12.1-3.81-13.45-10.1a19.85,19.85,0,0,1-.26-4.16q0-65,0-130c0-6.5,0-13,0-19.52,0-7.91,5.38-13.2,13.34-13.21q54.06,0,108.12.05c2.18,0,2.82-.43,2.81-2.73-.09-29.45-.06-58.89-.06-88.34,0-9.17,5-14.23,14.2-14.23Q363,85.78,447.63,85.79ZM285.18,190.53c-.07.3.05.44.36.43l50.92.06c9,0,14.15,5.17,14.15,14.11,0,26.65,0,53.31-.06,80,0,2.4.63,2.91,2.94,2.91q107.65-.09,215.31,0c2.2,0,2.84-.48,2.83-2.77q-.12-44.3,0-88.57c0-8.88,5.12-14,13.93-14l23.72,0c.3,0,.43-.1.37-.41q0-33.45,0-66.9c0-1.78.12-3.56.11-5.34,0-3.5.43-3.08-3.08-3.08q-156.92,0-313.82,0c-2.51,0-6-1.17-7.31.51s-.48,5.19-.3,7.89Q285.18,152.89,285.18,190.53Zm-39.84,30.12q-49.31,0-98.59,0c-2.05,0-2.69.42-2.69,2.61q.1,65.32,0,130.64c0,6.34,4.09,10.14,10.22,10.05,14.57-.2,29.14-.06,43.71-.06H336.54c6.41,0,9.91-3.39,9.91-9.62,0-5.35-.06-10.69-.06-16q0-57.42.11-114.83c0-2.3-.62-2.76-2.81-2.76Q294.51,220.71,245.34,220.65Zm330.41,64v87.87c0,7.09,3.06,10.14,10.19,10.14H721.49c1,0,2,0,3-.08,2-.1,3-.84,2.94-3.12-.09-13.25,0-26.5,0-39.75,0-1.09-.19-2.37.93-2.93,2.22-1.1,1.12-3,1.15-4.51s-1.6-1.13-2.53-1.31c-22.15-4.5-39.84-24.39-41.38-46.78-.14-2.1-.7-2.64-2.78-2.63-25.81.07-51.62,0-77.43.08-1.67,0-2.25-.32-2.26-2.13s.6-2.14,2.26-2.12c10.54.07,21.08,0,31.62,0,15.35,0,30.69,0,46,.05,1.93,0,2.49-.54,2.53-2.45a34.69,34.69,0,0,1,1.63-9.35c6.5-21,20.49-33.72,42-38,2-.39,2.58-1,2.55-3.05-.12-9.45,0-18.89-.07-28.34,0-6.2-3.33-9.48-9.45-9.48H585.36c-6.25,0-9.61,3.33-9.61,9.55Q575.74,240.52,575.75,284.69Zm-114.67,7.57H353.68c-3.07,0-3.07,0-3.07,2.94,0,12.86.06,25.72-.06,38.58,0,2.28.62,2.81,2.84,2.79,23.7-.26,47.4.07,71.11-.29,16.72-.25,33.46,0,50.19.14,31.53.33,63.08.08,94.62.14,1.86,0,2.32-.54,2.31-2.35-.07-13-.1-26,0-39,0-2.31-.51-3-2.91-3Q514.9,292.34,461.08,292.26ZM447.6,90h-1.86c-55.65,0-111.29.07-166.94-.08-7.24,0-10.62,4.28-10.57,10.64.23,29.05.1,58.11.1,87.17,0,.62.05,1.24,0,1.85-.1,1.13.41,1.49,1.49,1.47,2.79,0,5.59-.18,8.37,0,2.3.18,2.79-.61,2.78-2.82-.07-27.67,0-55.33-.1-83,0-2.18.64-2.66,2.72-2.66q163.8.08,327.6,0c2.11,0,2.72.51,2.71,2.67-.09,19.68,0,39.36,0,59,0,5.51,0,11,0,16.51,0,1.43.44,1.89,1.86,1.84,2.86-.09,5.74-.13,8.6,0,1.75.09,2.2-.46,2.2-2.2-.06-27.35,0-54.7-.05-82.06a8.25,8.25,0,0,0-6.11-8.09A19.15,19.15,0,0,0,615.7,90Q531.66,90,447.6,90ZM245.32,216.29v0q19.65,0,39.29,0,29.86,0,59.74.08c1.6,0,2.19-.45,2.13-2.1-.12-3.1,0-6.2,0-9.3,0-6.25-3.49-9.72-9.78-9.72q-35.91,0-71.83.05-56.13,0-112.28,0a8.26,8.26,0,0,0-8.39,8.38c0,3.18,0,6.36,0,9.53s0,3.17,3.07,3.17Zm492.49,111.5c25.66.86,47.54-20.63,48.65-45.84A48.64,48.64,0,0,0,739.68,231c-29.74-.78-50.06,23.53-50.2,48.23C689.34,306,712.1,328.59,737.81,327.79ZM446.24,380.4c6.67,0,13.33,0,20,0,1.71,0,2.47-.31,2.46-2.27-.08-11.85-.05-23.7,0-35.54,0-1.71-.52-2.29-2.26-2.28q-20,.09-40,0c-1.67,0-2.31.41-2.3,2.2q.07,17.9,0,35.79c0,1.65.54,2.11,2.13,2.09C432.92,380.36,439.58,380.4,446.24,380.4Zm298.27-21.84c0-5.35,0-10.7,0-16,0-1.35-.33-2-1.81-2-3.17.09-6.35.09-9.52.05-1.19,0-1.64.4-1.64,1.62q0,16.15,0,32.31c0,1.32.52,1.75,1.81,1.71,3-.07,6-.09,9.06,0,1.62.05,2.13-.51,2.11-2.13C744.46,368.94,744.51,363.75,744.51,358.56Zm-13,43.08c0,2.25.05,4.5,0,6.74,0,1.15.28,1.68,1.55,1.65,3.26-.07,6.51,0,9.76,0,1.13,0,1.7-.26,1.68-1.54,0-4.57,0-9.14,0-13.71,0-1.06-.31-1.55-1.45-1.53-3.33,0-6.67.06-10,0-1.28,0-1.56.53-1.54,1.67C731.6,397.15,731.56,399.4,731.56,401.64Zm6-12.56c1.91,0,3.45-.07,5,0,1.36.08,2-.3,1.91-1.78a43.22,43.22,0,0,1,0-5.09c.09-1.47-.52-1.86-1.89-1.83-2.85.08-5.72.14-8.57,0-1.9-.11-2.66.45-2.45,2.42s-.81,4.57.38,5.81S735.87,388.86,737.56,389.08Zm.49-52.86v0h3c.53,0,1,.07,1.23-.69.68-2.38-.13-3.56-2.59-3.54-1.54,0-3.08.08-4.61.06-1,0-1.27.43-1.34,1.39-.14,1.86.08,3.2,2.47,2.78A10.27,10.27,0,0,1,738.05,336.22Z"/><path class="cls-2" d="M208.36,172.18c-12.24,0-24.48,0-36.72,0-1.55,0-2.38-.14-2.35-2.08s.52-2.44,2.36-2.32,4.45.65,5.62-.32c1.37-1.14.45-3.77.46-5.75q.11-9.65,0-19.29c0-1.52.41-2,2-2q6.49.12,13,0c1.6,0,2.12.44,2.11,2.09-.09,7.67,0,15.34-.06,23,0,1.49,0,2.4,2,2.4s2.17-.91,2.17-2.51c0-18,0-36-.08-53.93,0-2.16.59-2.74,2.7-2.66,4,.17,8.06.14,12.09,0,1.77-.06,2.18.51,2.17,2.23-.06,18.21,0,36.42-.08,54.63,0,1.72.43,2.19,2.17,2.22,1.91,0,2.08-.74,2.08-2.32-.05-14.49,0-29-.09-43.47,0-2.26.55-2.88,2.8-2.76,3.94.2,7.9.14,11.85,0,1.79-.06,2.33.4,2.32,2.26-.08,14.49,0,29-.11,43.47,0,2.28.6,3,2.83,2.78,2-.2,4,.09,6-.08s1.71,1.11,1.79,2.34c.1,1.41-.21,2.08-1.85,2.05-8.91-.12-17.82.32-26.73,0C215.33,172.07,211.84,172.18,208.36,172.18Zm3.2-31.85V118.94c0-5.89,0-5.8-5.91-5.92-2.06,0-2.6.54-2.59,2.59.09,15.34,0,30.68.07,46,0,2-.89,4.57.43,5.78s3.86.17,5.84.38c1.71.19,2.23-.34,2.21-2.13C211.51,157.22,211.56,148.77,211.56,140.33Zm12.59,5.09v16c0,6.75,0,6.73,6.78,6.4,1.12,0,1.68-.29,1.68-1.56q0-20.53,0-41.06c0-1.18-.37-1.68-1.6-1.62a37.69,37.69,0,0,1-4.87,0c-1.71-.15-2,.6-2,2.14C224.19,132.27,224.15,138.84,224.15,145.42Zm-42.3,10.73c0,3.26.05,6.51,0,9.76,0,1.36.3,2,1.8,1.91a37.89,37.89,0,0,1,5.11,0c1.58.12,1.95-.53,1.93-2-.08-4.88,0-9.76,0-14.64,0-6.93,0-6.88-6.87-6.65-1.59.06-2,.67-1.94,2.11C181.9,149.8,181.85,153,181.85,156.15Z"/><path class="cls-2" d="M104.13,278.3c0-9.3,0-18.6.05-27.9,0-1.86-.37-2.78-2.39-2.44-1.32.22-1.92-.2-1.89-1.73q.12-8.83,0-17.67c0-1.51.52-1.81,1.88-1.76,2.94.09,5.89.09,8.83,0,1.47,0,2,.32,2,1.9-.09,5.81-.08,11.62,0,17.43,0,1.38-.3,2.12-1.78,1.84-2.18-.4-2.48.67-2.47,2.58q.09,28,0,56c0,1.83.47,2.38,2.31,2.32,3.24-.11,6.5.08,9.75.09,1.41,0,2.59.42,2.68,1.94s-1,2.42-2.54,2.31-1.6.61-1.6,1.79q.09,18.36.1,36.73c0,4.57,0,9.14-.09,13.71-.14,7.47-5.53,13-12.65,13S93.63,373,93.55,365.53c-.12-11,0-22,0-33,0-5.74,0-11.47,0-17.21,0-1.25.06-2.27-1.74-2.12A2,2,0,0,1,89.4,311c.06-1.53,1.2-2,2.61-2,3.41,0,6.82-.17,10.22-.1,1.57,0,1.94-.5,1.93-2C104.1,297.36,104.13,287.83,104.13,278.3Zm-6.48,53.84c0,5.65,0,11.3,0,17,0,1.33.26,1.94,1.77,1.91,4.57-.11,9.14-.11,13.71-.06,1.32,0,1.71-.45,1.7-1.75q-.06-17.07,0-34.14c0-1.32-.41-1.75-1.72-1.73-4.5,0-9,.05-13.48-.08-1.74-.06-2,.65-2,2.16C97.69,321,97.65,326.56,97.65,332.14Zm8.6,23c-2.32,0-4.64,0-7,0-1.14,0-1.69.27-1.66,1.55.07,3.09-.06,6.18.06,9.27a8.56,8.56,0,0,0,17.1,0c.13-3.09,0-6.19.06-9.28,0-1.25-.46-1.61-1.64-1.58C110.89,355.23,108.57,355.18,106.25,355.18Zm2.12-117.76c0-1.62-.12-3.25,0-4.85.19-2-1.12-1.55-2.21-1.59s-2.24-.2-2.13,1.68a79.48,79.48,0,0,1,0,9c-.1,1.82.58,2.11,2.22,2.16,1.81,0,2.27-.59,2.11-2.25C108.27,240.2,108.37,238.8,108.37,237.42Z"/><path class="cls-2" d="M693.78,143a17.33,17.33,0,0,1,.48-3.66c.23-1,1.6-1.88.7-2.94a48.75,48.75,0,0,0-4.45-4.41c-.5-.45-1,.21-1.42.48a10.22,10.22,0,0,1-10.38.71,1.78,1.78,0,0,0-2.41.45c-2.65,2.72-5.3,5.44-8.06,8.05a2.31,2.31,0,0,0-.62,3.14,10.46,10.46,0,0,1-6.07,14.06,10.61,10.61,0,0,1-13.63-6.71,10.5,10.5,0,0,1,7.44-13.4,9.46,9.46,0,0,1,7,.64A1.86,1.86,0,0,0,665,139c2.69-2.79,5.42-5.54,8.22-8.21a2,2,0,0,0,.51-2.75,10.47,10.47,0,0,1,12.62-14.35c4.35,1.31,6.75,4.44,7.43,8.9a12.83,12.83,0,0,1,0,2.32c0,1.21-1.24,2.55-.51,3.51a51.85,51.85,0,0,0,4.86,5c.53.52,1,.07,1.47-.15a10.22,10.22,0,0,1,10.59.7,1.48,1.48,0,0,0,2.29-.28c2.92-3,5.86-6,8.88-8.86a2.44,2.44,0,0,0,.7-3.32,10.43,10.43,0,0,1,5.91-13.94A10.61,10.61,0,0,1,741.68,114a10.48,10.48,0,0,1-7,13.45,9.42,9.42,0,0,1-7.24-.49c-1.3-.69-2-.36-2.94.59-3,3.12-6.07,6.21-9.22,9.19a2.75,2.75,0,0,0-.86,3.19A10.51,10.51,0,1,1,693.78,143ZM658,155.3a6.42,6.42,0,0,0,6.39-6.29,6.51,6.51,0,0,0-6.55-6.38A6.34,6.34,0,1,0,658,155.3Zm25.33-25.2a6.62,6.62,0,0,0,6.32-6.43,6.46,6.46,0,0,0-12.92,0A6.68,6.68,0,0,0,683.37,130.1Zm27.28,12.74a6.55,6.55,0,0,0-6.29-6.66,6.63,6.63,0,0,0-6.4,6.32,6.35,6.35,0,1,0,12.69.34Zm21.07-19.12a6.27,6.27,0,0,0,6.36-6.48,6.39,6.39,0,1,0-6.36,6.48Z"/><path class="cls-2" d="M800.36,170.65c-.18,1.4-1.52,2.11-2.41,3.14s-2.21,1.54-1.16,3.24.86,4.18,3.89,3.47a7.83,7.83,0,0,1,2.32,0,2.35,2.35,0,0,1,2.44,2.54c0,2.55,0,5.11,0,7.67a2.34,2.34,0,0,1-2.64,2.55h-.93c-3.61,0-4.51.79-5.4,4.32-.27,1.06.52,1.36,1,1.87,3.73,3.91,3.74,3.9-.12,7.76l-.5.48c-4.26,4.27-4.27,4.28-8.72.34a1.64,1.64,0,0,0-2-.41c-3.78,1.49-3.8,1.43-3.84,5.45,0,2.73-.56,3.3-3.24,3.34-2.17,0-4.34,0-6.51,0-2,0-3.07-.84-2.92-2.95,0-.23,0-.46,0-.69,0-3.5-1-4.63-4.41-5.38-1-.22-1.37.57-1.88,1.07-3.83,3.7-3.82,3.71-7.59-.06-1-1-2.05-2.1-3.12-3.11-1.52-1.43-1.44-2.79,0-4.16l.49-.49c2.5-2.53,2.6-3.64.71-6.71a1.4,1.4,0,0,0-1.33-.69H750c-3,0-3.52-.52-3.53-3.5,0-2.16.05-4.34,0-6.5,0-1.88.89-2.69,2.66-2.75.38,0,.77,0,1.16,0,3.1,0,4.62-1.36,5.13-4.4a1.46,1.46,0,0,0-.61-1.39c-.76-.78-1.51-1.55-2.3-2.3-1.33-1.29-1.26-2.55,0-3.82,1.75-1.75,3.49-3.52,5.26-5.25a2.28,2.28,0,0,1,3.65.06l.66.66c2.58,2.55,3.83,2.65,6.86.72,1-.61.68-1.47.69-2.27.08-5.08.06-5.09,5.13-5.08h4.88c1.84,0,2.73.87,2.67,2.7,0,.23,0,.47,0,.7,0,3.92.46,4.43,4.21,5.47,1.16.32,1.53-.53,2.09-1.07,3.76-3.64,3.75-3.65,7.43,0l3.45,3.45A2.64,2.64,0,0,1,800.36,170.65Zm-41.26-2.89a17.72,17.72,0,0,0-2.19,2.39c-.58.91.58,1.26,1,1.82a5.7,5.7,0,0,0,1.14,1.16c1.49,1.18,1.59,2.42.54,4a13.82,13.82,0,0,0-1.76,3.75c-1.1,3.72-.39,3.75-5.05,3.6-1.77-.05-2.18.53-2.22,2.24,0,1.94.53,2.5,2.47,2.44,3.41-.1,3.66-.76,4.74,3.4a16.65,16.65,0,0,0,2,4.39,2.26,2.26,0,0,1-.44,3.27c-.51.47-.94,1-1.48,1.47-1.29,1-1.28,1.79-.07,2.93s2.08,1.87,3.31.18c.31-.43.79-.74,1.13-1.16,1.12-1.39,2.32-1.49,3.85-.55a20.22,20.22,0,0,0,4,1.85c3.68,1.26,3.76,1.22,3.7,5.1,0,1.62.28,2.36,2.14,2.34s2.23-.53,2.19-2.25c-.09-4,0-4,3.76-5.29a28.39,28.39,0,0,0,4.18-2,2.31,2.31,0,0,1,3.13.36c.71.72,1.43,1.42,2.15,2.13.46.45.86.77,1.59.33,2.25-1.38,2.53-2.58.56-4.27s-2.46-3.35-.87-5.57a10.88,10.88,0,0,0,1.31-2.95c1.37-4.13.46-3.85,5.19-3.76,1.69,0,2.35-.39,2.27-2.18-.08-1.6-.14-2.8-2.22-2.46-.6.1-1.24,0-1.85,0-1.7.2-2.56-.59-3-2.19a25,25,0,0,0-1.5-4.12c-1.62-3.45-1.72-3.5,1.12-6.19,1.24-1.17,1.35-1.86,0-3.09s-2.15-1.64-3.31-.06c-.32.43-.79.75-1.13,1.16a2.46,2.46,0,0,1-3.81.52,14.21,14.21,0,0,0-4.21-1.91c-3.44-1-3.56-1.06-3.42-4.76.07-2-.66-2.49-2.53-2.41-1.49.06-1.78.64-1.8,2-.07,4-.12,4-4,5.34a22.93,22.93,0,0,0-2.35,1c-3.68,1.76-3.67,1.76-6.58-1C760.44,168.4,760.13,167.8,759.1,167.76Z"/><path class="cls-2" d="M324.38,410H251.87c-2.39,0-3.15-1.09-2.48-3.44a.89.89,0,0,1,1-.77H252q72.29,0,144.56,0c1.78,0,2.56.22,2.55,2.32s-1,2-2.42,2q-32.19,0-64.38,0Z"/><path class="cls-2" d="M109.74,155.3c-10-.13-17.95-4.22-25.28-9.83a55.9,55.9,0,0,1-7.47-7c-.66-.73-.93-1.27-.11-2.13,7.92-8.41,16.92-15,28.74-16.63,9.62-1.33,17.95,2.13,25.71,7.37a58.07,58.07,0,0,1,10.33,9c.8.87,1.05,1.48.11,2.47-7.72,8.16-16.52,14.48-27.89,16.39A40.65,40.65,0,0,1,109.74,155.3Zm-.55-4.32c.78,0,1.55,0,2.32,0a12.38,12.38,0,0,0,1.38-.18c9.19-1.42,16.47-6.36,23.15-12.45,1-.88.53-1.36-.16-2a52,52,0,0,0-11.59-8.47c-5.28-2.78-10.82-4.6-16.91-4-9.83,1-17.5,6.12-24.55,12.53-.84.75-.83,1.24,0,2a57,57,0,0,0,7.6,6.09C96.11,148.23,102.21,150.91,109.19,151Z"/><path class="cls-2" d="M604.59,407.87h59.26c2.46,0,3.29,1.2,2.58,3.6a.9.9,0,0,1-1,.74H544.84c-2.91,0-2.87,0-2.7-3,.06-1,.3-1.43,1.34-1.36s2,0,3,0Z"/><path class="cls-2" d="M211.59,395.31c-3.71,0-7.43-.09-11.14,0-1.78.06-1.6-1-1.55-2.07s-.46-2.33,1.55-2.31c7.42.09,14.85.08,22.28,0,1.88,0,1.41,1.2,1.42,2.18s.46,2.23-1.41,2.18C219,395.24,215.31,395.31,211.59,395.31Z"/><path class="cls-2" d="M807.57,243.73c-3,0-6-.09-9.05,0-2,.09-1.52-1.21-1.56-2.29s-.22-2.11,1.55-2.08c6,.09,11.91.11,17.86,0,1.91,0,1.69,1,1.69,2.21s.27,2.29-1.67,2.18C813.46,243.6,810.51,243.73,807.57,243.73Z"/><path class="cls-2" d="M71.37,281.63c2.71,0,5.43.08,8.14,0,1.87-.07,1.41,1.17,1.43,2.16s.35,2.16-1.48,2.13c-5.34-.1-10.69-.09-16,0-1.84,0-1.44-1.14-1.46-2.15s-.29-2.21,1.51-2.13C66.1,281.71,68.74,281.63,71.37,281.63Z"/><path class="cls-2" d="M791.79,346.85c-2.7,0-5.41-.08-8.1,0-1.85.08-1.45-1.14-1.45-2.14s-.41-2.18,1.44-2.15c5.4.09,10.81.07,16.21,0,1.69,0,1.4,1.06,1.35,2s.55,2.3-1.34,2.26C797.2,346.8,794.49,346.85,791.79,346.85Z"/><path class="cls-2" d="M117.73,184.82c-1.93,0-3.86-.07-5.79,0s-1.51-1.24-1.56-2.34-.06-2.1,1.62-2.05c3.94.1,7.87.07,11.81,0,2.12,0,1.22,1.51,1.35,2.47s.23,2-1.41,1.92C121.75,184.72,119.74,184.82,117.73,184.82Z"/><path class="cls-3" d="M461.08,292.26q53.82,0,107.64-.06c2.4,0,2.93.66,2.91,3-.11,13-.08,26,0,39,0,1.81-.45,2.35-2.31,2.35-31.54-.06-63.09.19-94.62-.14-16.73-.18-33.47-.39-50.19-.14-23.71.36-47.41,0-71.11.29-2.22,0-2.86-.51-2.84-2.79.12-12.86.06-25.72.06-38.58,0-2.94,0-2.94,3.07-2.94Z"/><path class="cls-3" d="M447.6,90q84,0,168.1,0a19.15,19.15,0,0,1,4.62.31,8.25,8.25,0,0,1,6.11,8.09c0,27.36,0,54.71.05,82.06,0,1.74-.45,2.29-2.2,2.2-2.86-.14-5.74-.1-8.6,0-1.42.05-1.87-.41-1.86-1.84.07-5.5,0-11,0-16.51,0-19.68,0-39.36,0-59,0-2.16-.6-2.67-2.71-2.67q-163.8.08-327.6,0c-2.08,0-2.72.48-2.72,2.66.08,27.66,0,55.32.1,83,0,2.21-.48,3-2.78,2.82-2.78-.21-5.58-.08-8.37,0-1.08,0-1.59-.34-1.49-1.47.05-.61,0-1.23,0-1.85,0-29.06.13-58.12-.1-87.17-.05-6.36,3.33-10.66,10.57-10.64,55.65.15,111.29.08,166.94.08Z"/><path class="cls-3" d="M245.32,216.29h-98.1c-3.07,0-3.07,0-3.07-3.17s0-6.35,0-9.53a8.26,8.26,0,0,1,8.39-8.38q56.14,0,112.28,0,35.93,0,71.83-.05c6.29,0,9.78,3.47,9.78,9.72,0,3.1-.08,6.2,0,9.3.06,1.65-.53,2.1-2.13,2.1q-29.87-.09-59.74-.08-19.65,0-39.29,0ZM338,205.81a4.37,4.37,0,0,0-8.74.07,4.37,4.37,0,0,0,8.74-.07Zm-19.07,0a4.14,4.14,0,0,0,4.17,4.28,4.35,4.35,0,0,0,4.28-4.26,4.13,4.13,0,0,0-4.27-4.18A3.86,3.86,0,0,0,319,205.81Zm-2.21,0a3.85,3.85,0,0,0-4.17-4.15,4.3,4.3,0,0,0-4.27,4.2,4.35,4.35,0,0,0,4.28,4.24A4.13,4.13,0,0,0,316.76,205.8Z"/><path class="cls-3" d="M609.59,115.26c-.93,0-1.86,0-2.79,0q-159.42,0-318.82,0c-.93,0-1.86,0-2.79,0-.18-2.7-1.13-6.06.3-7.89s4.8-.51,7.31-.51q156.92,0,313.82,0c3.51,0,3.06-.42,3.08,3.08C609.71,111.7,609.63,113.48,609.59,115.26Z"/><path class="cls-4" d="M737.81,327.79c-25.71.8-48.47-21.84-48.33-48.54.14-24.7,20.46-49,50.2-48.23A48.64,48.64,0,0,1,786.46,282C785.35,307.16,763.47,328.65,737.81,327.79Zm.29-8.86a39.49,39.49,0,1,0-39.57-39.28A39.5,39.5,0,0,0,738.1,318.93Z"/><path class="cls-3" d="M446.24,380.4c-6.66,0-13.32,0-20,0-1.59,0-2.14-.44-2.13-2.09q.11-17.9,0-35.79c0-1.79.63-2.21,2.3-2.2q20,.07,40,0c1.74,0,2.27.57,2.26,2.28-.07,11.84-.1,23.69,0,35.54,0,2-.75,2.28-2.46,2.27C459.57,380.35,452.91,380.4,446.24,380.4Z"/><path class="cls-4" d="M744.51,358.56c0,5.19,0,10.38,0,15.57,0,1.62-.49,2.18-2.11,2.13-3-.11-6-.09-9.06,0-1.29,0-1.81-.39-1.81-1.71q0-16.15,0-32.31c0-1.22.45-1.63,1.64-1.62,3.17,0,6.35,0,9.52-.05,1.48,0,1.82.62,1.81,2C744.48,347.86,744.51,353.21,744.51,358.56Z"/><path class="cls-4" d="M731.56,401.64c0-2.24,0-4.49,0-6.73,0-1.14.26-1.7,1.54-1.67,3.33.07,6.67.05,10,0,1.14,0,1.45.47,1.45,1.53,0,4.57,0,9.14,0,13.71,0,1.28-.55,1.55-1.68,1.54-3.25,0-6.5-.07-9.76,0-1.27,0-1.58-.5-1.55-1.65C731.61,406.14,731.56,403.89,731.56,401.64Z"/><path class="cls-3" d="M285.18,190.53l.36.43C285.23,191,285.11,190.83,285.18,190.53Z"/><path class="cls-3" d="M609.23,182.57c.12-.14.24-.28.37-.41C609.66,182.47,609.53,182.59,609.23,182.57Z"/><path class="cls-4" d="M224.15,145.42c0-6.58,0-13.15,0-19.72,0-1.54.3-2.29,2-2.14a37.69,37.69,0,0,0,4.87,0c1.23-.06,1.61.44,1.6,1.62q0,20.53,0,41.06c0,1.27-.56,1.51-1.68,1.56-6.78.33-6.78.35-6.78-6.4Z"/><path class="cls-4" d="M181.85,156.15c0-3.17.05-6.35,0-9.52,0-1.44.35-2,1.94-2.11,6.87-.23,6.87-.28,6.87,6.65,0,4.88,0,9.76,0,14.64,0,1.48-.35,2.13-1.93,2a37.89,37.89,0,0,0-5.11,0c-1.5.1-1.83-.55-1.8-1.91C181.9,162.66,181.85,159.41,181.85,156.15Z"/><path class="cls-4" d="M97.65,332.14c0-5.58,0-11.15,0-16.73,0-1.51.26-2.22,2-2.16,4.49.13,9,.12,13.48.08,1.31,0,1.72.41,1.72,1.73q-.07,17.07,0,34.14c0,1.3-.38,1.76-1.7,1.75-4.57-.05-9.14-.05-13.71.06-1.51,0-1.79-.58-1.77-1.91C97.68,343.44,97.65,337.79,97.65,332.14Z"/><path class="cls-4" d="M759.1,167.76c1,0,1.34.64,1.77,1.05,2.91,2.76,2.9,2.76,6.58,1a22.93,22.93,0,0,1,2.35-1c3.86-1.35,3.91-1.34,4-5.34,0-1.33.31-1.91,1.8-2,1.87-.08,2.6.39,2.53,2.41-.14,3.7,0,3.72,3.42,4.76a14.21,14.21,0,0,1,4.21,1.91,2.46,2.46,0,0,0,3.81-.52c.34-.41.81-.73,1.13-1.16,1.16-1.58,2.06-1.14,3.31.06s1.19,1.92,0,3.09c-2.84,2.69-2.74,2.74-1.12,6.19a25,25,0,0,1,1.5,4.12c.42,1.6,1.28,2.39,3,2.19.61-.07,1.25.07,1.85,0,2.08-.34,2.14.86,2.22,2.46.08,1.79-.58,2.21-2.27,2.18-4.73-.09-3.82-.37-5.19,3.76a10.88,10.88,0,0,1-1.31,2.95c-1.59,2.22-1.12,3.87.87,5.57s1.69,2.89-.56,4.27c-.73.44-1.13.12-1.59-.33-.72-.71-1.44-1.41-2.15-2.13a2.31,2.31,0,0,0-3.13-.36,28.39,28.39,0,0,1-4.18,2c-3.74,1.34-3.85,1.3-3.76,5.29,0,1.72-.43,2.24-2.19,2.25s-2.16-.72-2.14-2.34c.06-3.88,0-3.84-3.7-5.1a20.22,20.22,0,0,1-4-1.85c-1.53-.94-2.73-.84-3.85.55-.34.42-.82.73-1.13,1.16-1.23,1.69-2.14.92-3.31-.18s-1.22-1.95.07-2.93c.54-.42,1-1,1.48-1.47a2.26,2.26,0,0,0,.44-3.27,16.65,16.65,0,0,1-2-4.39c-1.08-4.16-1.33-3.5-4.74-3.4-1.94.06-2.51-.5-2.47-2.44,0-1.71.45-2.29,2.22-2.24,4.66.15,4,.12,5.05-3.6a13.82,13.82,0,0,1,1.76-3.75c1-1.6.95-2.84-.54-4a5.7,5.7,0,0,1-1.14-1.16c-.42-.56-1.58-.91-1-1.82A17.72,17.72,0,0,1,759.1,167.76Zm31.54,19.12a14.71,14.71,0,1,0-14.75,14.78A14.86,14.86,0,0,0,790.64,186.88Z"/><path class="cls-3" d="M305.09,330c-7.89,0-15.79,0-23.69,0-1.7,0-2.47-.29-2.42-2.26.14-5.57.09-11.15,0-16.72,0-1.52.48-2,2-2q24.27.06,48.54,0c1.69,0,2.07.61,2.05,2.16-.08,5.57-.09,11.15,0,16.72,0,1.63-.48,2.1-2.1,2.09C321.35,330,313.22,330,305.09,330Z"/><path class="cls-3" d="M246,330c-8,0-15.94,0-23.92,0-1.58,0-2.15-.4-2.13-2.07.1-5.65.09-11.3,0-17,0-1.56.55-1.94,2-1.94q24.27.06,48.54,0c1.48,0,2,.41,2,2-.07,5.65-.09,11.3,0,16.94,0,1.69-.59,2.07-2.15,2.06C262.26,330,254.13,330,246,330Z"/><path class="cls-3" d="M187.4,309.11c7.91,0,15.82,0,23.72,0,1.79,0,2.44.42,2.39,2.32-.12,5.5-.09,11,0,16.51,0,1.57-.4,2.14-2.07,2.14q-24.18-.09-48.37,0c-1.58,0-2.17-.4-2.14-2.07.09-5.58.11-11.16,0-16.74,0-1.84.66-2.17,2.31-2.16C171.28,309.14,179.34,309.11,187.4,309.11Z"/><path class="cls-3" d="M187.41,338.39c-8,0-16.11,0-24.16,0-.86,0-2.26.59-2.25-1.12,0-1.53,1.29-1,2.1-1q24.17,0,48.32,0c.39,0,.78,0,1.16,0a1.09,1.09,0,0,1,1.16,1.18c0,.86-.56,1-1.24,1H187.41Z"/><path class="cls-3" d="M246.21,336.2c8,0,16.11,0,24.16,0,.81,0,2.06-.47,2.09,1s-1.22,1.11-2,1.11q-24.15,0-48.3,0c-.8,0-2.06.51-2.09-1s1.21-1.11,2-1.12Q234.14,336.18,246.21,336.2Z"/><path class="cls-3" d="M305.29,336.2q12.07,0,24.16,0c.81,0,2.06-.45,2.06,1.09s-1.25,1.07-2.06,1.07q-24.15,0-48.31,0c-.81,0-2.07.48-2.07-1.06s1.24-1.09,2.06-1.1Q293.22,336.18,305.29,336.2Z"/><path class="cls-3" d="M186.92,346.78c-8,0-15.95,0-23.92,0-.73,0-1.95.46-1.95-.92s1.21-.92,1.95-.92q24.15,0,48.29,0c.79,0,2.17-.51,2.07,1-.09,1.28-1.32.8-2.06.8C203.17,346.79,195,346.78,186.92,346.78Z"/><path class="cls-3" d="M305.17,342.58H280.32c-.66,0-1.28-.1-1.23-1,0-.73.54-.86,1.12-.87h48.55a7.2,7.2,0,0,1,.93,0c.7.08,1.72-.33,1.78.88s-1,.94-1.68,1c-1,0-2,0-3,0Z"/><path class="cls-3" d="M305.32,346.78c-8.05,0-16.11,0-24.16,0-.74,0-2,.49-2-.82-.07-1.56,1.3-1,2.08-1q24-.06,48.1,0h.93c.64,0,1.27.06,1.25,1s-.68.9-1.31.9H305.32Z"/><path class="cls-3" d="M246,346.78c-8,0-16,0-23.93,0-.73,0-1.93.49-2-.87s1.17-1,1.91-1q24.27,0,48.55,0c.74,0,2-.4,1.87,1s-1.29.83-2,.83C262.25,346.79,254.12,346.78,246,346.78Z"/><path class="cls-3" d="M187.13,342.58c-8,0-16.09,0-24.14,0-.73,0-2,.47-1.94-.92s1.22-.91,2-.91q24.15,0,48.3,0c.74,0,2-.47,2,.82.09,1.55-1.28,1-2.07,1C203.23,342.6,195.18,342.58,187.13,342.58Z"/><path class="cls-3" d="M246.24,342.58c-8,0-16,0-23.92,0-.78,0-2.16.63-2.22-.85s1.32-1,2.1-1q24,0,48.08,0h.93c.66,0,1.28.11,1.23,1s-.73.86-1.35.87H246.24Z"/><path class="cls-2" d="M651.56,319.47c15.41,0,30.82,0,46.24,0,1.85,0,2.28.51,2.34,2.31.07,2.06-1,2-2.4,2q-46,0-92,0c-2.25,0-3.33-1.65-2.42-3.66.46-1,1.36-.55,2-.55,9.68,0,19.37,0,29,0Z"/><path class="cls-2" d="M651.56,239.44h-45.8c-2.49,0-3.14-.89-2.54-3.37.13-.56.36-.81.91-.8h1.16q46.26,0,92.53,0c1.64,0,2.29.29,2.29,2.13s-.65,2.12-2.28,2.12C682.4,239.42,667,239.44,651.56,239.44Z"/><path class="cls-2" d="M635.74,224.78c10.23,0,20.46,0,30.69,0,1.61,0,2.12.41,2.11,2.06s-.31,2.26-2.15,2.25q-30.57-.11-61.12,0c-1.91,0-2-.74-2.1-2.3s.56-2,2.12-2C615.44,224.81,625.59,224.78,635.74,224.78Z"/><path class="cls-2" d="M635.73,309c10.22,0,20.44,0,30.66,0,1.55,0,2.18.31,2.15,2s-.3,2.25-2.15,2.24q-30.55-.11-61.11,0c-1.57,0-2.14-.31-2.11-2s.26-2.27,2.12-2.25C615.44,309.09,625.58,309,635.73,309Z"/><path class="cls-2" d="M635.76,271c-10,0-20,0-30,0-1.57,0-2.66.12-2.68-2.16,0-2.5,1.39-2,2.79-2H665.6c1.51,0,2.95-.43,2.94,2.16s-1.68,2-3.06,2C655.58,271.05,645.67,271,635.76,271Z"/><path class="cls-2" d="M625.55,287.88c6.64,0,13.29.08,19.93-.06,2.06,0,1.89,1,2,2.4s-.35,2-1.91,1.95q-20.19-.09-40.38,0c-1.76,0-2-.66-2-2.16s.23-2.2,2-2.17C612,287.93,618.75,287.88,625.55,287.88Z"/><path class="cls-2" d="M625.52,245.85c6.65,0,13.31.07,20,0,1.77,0,2,.69,2,2.16s-.33,2.12-2,2.11q-20.08-.12-40.18,0c-1.61,0-2.09-.39-2.09-2s.33-2.26,2.15-2.23C612.05,245.92,618.78,245.85,625.52,245.85Z"/><path class="cls-2" d="M625.28,334.22c-6.73,0-13.47-.08-20.21,0-1.89,0-1.87-.85-1.88-2.23s.12-2.05,1.82-2q20.22.12,40.43,0c1.69,0,2,.54,2,2.1s-.17,2.19-2,2.16C638.76,334.15,632,334.22,625.28,334.22Z"/><path class="cls-2" d="M609.37,212.11a40.33,40.33,0,0,0-4.4,0c-1.8.19-1.81-.83-1.75-2.1s-.29-2.31,1.67-2.21a89.57,89.57,0,0,0,9.27,0c2-.1,1.62,1.11,1.64,2.23s.21,2.21-1.56,2.06C612.63,212,611,212.11,609.37,212.11Z"/><path class="cls-2" d="M738.1,318.93a39.49,39.49,0,1,1-.08-79,39.49,39.49,0,1,1,.08,79Zm-.28-4.18a35.3,35.3,0,1,0-35.12-35.61A35.33,35.33,0,0,0,737.82,314.75Z"/><path class="cls-2" d="M790.64,186.88A14.71,14.71,0,1,1,775.93,172,14.8,14.8,0,0,1,790.64,186.88Zm-25.25-.06A10.52,10.52,0,1,0,776,176.24,10.62,10.62,0,0,0,765.39,186.82Z"/><path class="cls-4" d="M113.77,127.94c-3.17-.15-5.13,1.19-5.4,3.7a4.07,4.07,0,0,0,3.53,4.62c3.08.56,5-1.69,4.71-5.62l.28-.23c2.65,3.36,2.7,7,.86,10.65a10.54,10.54,0,0,1-19.16-.7A10.52,10.52,0,0,1,101.77,128a10.22,10.22,0,0,1,12.31-.45Z"/><path class="cls-3" d="M116.61,130.64c-.19-.23-.46-.45-.12-.77l.39.55Z"/><path class="cls-3" d="M114.08,127.59c.18.14.65.16.42.5s-.51,0-.72-.15C113.87,127.82,114,127.71,114.08,127.59Z"/><path class="cls-2" d="M738.08,257c-.26-1.5,0-2.37,1.84-2.16a25,25,0,0,1,17.46,9.4c.44.55,1.76,1.36.18,2.08-1.08.49-1.88,2.6-3.54.47a19.58,19.58,0,0,0-14-7.64C738.48,259,737.62,258.61,738.08,257Z"/><path class="cls-2" d="M769.62,186.81a6.31,6.31,0,1,1,12.62.12,6.44,6.44,0,0,1-6.39,6.3A6.34,6.34,0,0,1,769.62,186.81Zm4.22.07a2,2,0,0,0,2.13,2.17,2.18,2.18,0,0,0,0-4.35A1.91,1.91,0,0,0,773.84,186.88Z"/><path class="cls-3" d="M773.84,186.88A1.91,1.91,0,0,1,776,184.7a2.18,2.18,0,0,1,0,4.35A2,2,0,0,1,773.84,186.88Z"/><path class="cls-2" d="M412.77,227.35h77.89a4.3,4.3,0,0,0,4.13-3.11L512,164.1a4.29,4.29,0,0,0-4.13-5.47h-105l-3.07-13.82a4.29,4.29,0,0,0-4.19-3.36H369.83a4.3,4.3,0,0,0,0,8.59h22.33c.54,2.45,14.69,66.11,15.5,69.78a12.88,12.88,0,0,0,5.12,24.7h77.88a4.3,4.3,0,0,0,0-8.59H412.78a4.29,4.29,0,0,1,0-8.58Zm89.37-60.13-14.72,51.53h-71.2l-11.45-51.53Z"/><path class="cls-2" d="M408.49,257.41a12.88,12.88,0,1,0,12.88-12.89A12.9,12.9,0,0,0,408.49,257.41Zm12.88-4.3a4.3,4.3,0,1,1-4.3,4.3A4.3,4.3,0,0,1,421.37,253.11Z"/><path class="cls-2" d="M469.18,257.41a12.89,12.89,0,1,0,12.89-12.89A12.9,12.9,0,0,0,469.18,257.41Zm12.89-4.3a4.3,4.3,0,1,1-4.3,4.3A4.3,4.3,0,0,1,482.07,253.11Z"/></g></g></svg>